<?xml version="1.0" encoding="UTF-8"?>
<svg width="24" height="24" viewBox="0 0 48 48" fill="none" xmlns="http://www.w3.org/2000/svg">
  <path d="M36.5 12.5C36.5 12.5 33.5 9.5 28 9.5V30.5C28 35.5 24 39.5 19 39.5C14 39.5 10 35.5 10 30.5C10 25.5 14 21.5 19 21.5V27.5C17 27.5 16 29 16 30.5C16 32 17 33.5 19 33.5C21 33.5 22 32 22 30.5V3.5H28C28 8.5 33 12.5 36.5 12.5V18.5C31.5 18.5 29 16.5 28 15.5V30.5C28 35.5 24 39.5 19 39.5" stroke="currentColor" stroke-width="4" stroke-linecap="round" stroke-linejoin="round"/>
</svg> 